<svg width="25" height="25" viewBox="0 0 25 25" fill="none" xmlns="http://www.w3.org/2000/svg">
<path d="M21.3335 12.9049C21.3335 13.1039 21.2545 13.2946 21.1138 13.4353C20.9732 13.5759 20.7824 13.6549 20.5835 13.6549H4.0835C3.88458 13.6549 3.69382 13.5759 3.55317 13.4353C3.41251 13.2946 3.3335 13.1039 3.3335 12.9049C3.3335 12.706 3.41251 12.5153 3.55317 12.3746C3.69382 12.234 3.88458 12.1549 4.0835 12.1549H20.5835C20.7824 12.1549 20.9732 12.234 21.1138 12.3746C21.2545 12.5153 21.3335 12.706 21.3335 12.9049ZM4.0835 7.65494H20.5835C20.7824 7.65494 20.9732 7.57592 21.1138 7.43527C21.2545 7.29462 21.3335 7.10385 21.3335 6.90494C21.3335 6.70603 21.2545 6.51526 21.1138 6.37461C20.9732 6.23396 20.7824 6.15494 20.5835 6.15494H4.0835C3.88458 6.15494 3.69382 6.23396 3.55317 6.37461C3.41251 6.51526 3.3335 6.70603 3.3335 6.90494C3.3335 7.10385 3.41251 7.29462 3.55317 7.43527C3.69382 7.57592 3.88458 7.65494 4.0835 7.65494ZM20.5835 18.1549H4.0835C3.88458 18.1549 3.69382 18.234 3.55317 18.3746C3.41251 18.5153 3.3335 18.706 3.3335 18.9049C3.3335 19.1039 3.41251 19.2946 3.55317 19.4353C3.69382 19.5759 3.88458 19.6549 4.0835 19.6549H20.5835C20.7824 19.6549 20.9732 19.5759 21.1138 19.4353C21.2545 19.2946 21.3335 19.1039 21.3335 18.9049C21.3335 18.706 21.2545 18.5153 21.1138 18.3746C20.9732 18.234 20.7824 18.1549 20.5835 18.1549Z" fill="black"/>
</svg>
